<?xml version="1.0" standalone="no"?>
<!DOCTYPE svg PUBLIC "-//W3C//DTD SVG 20010904//EN"
 "http://www.w3.org/TR/2001/REC-SVG-20010904/DTD/svg10.dtd">
<svg version="1.0" xmlns="http://www.w3.org/2000/svg"
 width="1920.000000pt" height="421.000000pt" viewBox="0 0 1920.000000 421.000000"
 preserveAspectRatio="xMidYMid meet">

<g transform="translate(0.000000,421.000000) scale(0.100000,-0.100000)"
fill="#000000" stroke="none">
<path d="M4996 4109 c-863 -111 -1551 -691 -1762 -1484 -25 -93 -54 -244 -54
-278 0 -16 31 -17 552 -15 l552 3 13 80 c32 194 123 408 232 546 138 176 377
311 592 335 l59 7 0 408 0 409 -57 -1 c-32 -1 -89 -6 -127 -10z"/>
<path d="M5420 3710 l0 -410 29 0 c58 0 220 -49 307 -93 287 -144 469 -420
535 -809 l11 -68 550 0 551 0 -7 70 c-8 90 -65 309 -110 428 -240 625 -793
1090 -1479 1243 -114 25 -276 49 -339 49 l-48 0 0 -410z"/>
<path d="M17388 4100 c-364 -35 -669 -159 -878 -356 -234 -221 -340 -495 -326
-844 7 -199 42 -346 115 -493 l36 -72 1090 -2 1090 -2 -25 21 c-48 40 -307
158 -455 207 -82 28 -215 66 -295 86 -199 50 -321 90 -411 136 -94 47 -132 78
-167 138 -23 40 -27 57 -27 126 0 71 3 86 31 135 35 61 92 106 182 142 52 21
72 23 247 23 220 0 315 -16 546 -92 129 -42 365 -148 456 -206 l42 -26 20 62
c72 222 191 629 186 637 -11 17 -176 112 -298 170 -198 94 -413 160 -642 195
-122 19 -398 27 -517 15z"/>
<path d="M9608 4085 c-476 -60 -887 -250 -1201 -554 -234 -227 -382 -461 -482
-764 -41 -126 -81 -305 -87 -392 l-3 -40 552 -3 552 -2 11 57 c44 227 148 433
294 579 273 272 704 373 1174 274 258 -54 521 -178 739 -346 l83 -64 0 445 0
445 -77 51 c-215 141 -525 250 -857 301 -171 26 -543 33 -698 13z"/>
<path d="M350 3175 l0 -845 1133 2 1132 3 0 105 0 105 -612 3 -613 2 0 340 0
340 773 2 772 3 3 393 2 392 -1295 0 -1295 0 0 -845z"/>
<path d="M11852 3178 l3 -843 525 0 525 0 0 840 0 840 -528 3 -527 2 2 -842z"/>
<path d="M14550 3175 l0 -845 508 2 507 3 3 843 2 842 -510 0 -510 0 0 -845z"/>
<path d="M350 1135 l0 -965 518 2 517 3 3 798 2 797 615 0 615 0 0 165 0 165
-1135 0 -1135 0 0 -965z"/>
<path d="M3166 2092 c-3 -4 0 -68 5 -142 58 -823 590 -1498 1390 -1765 190
-63 453 -115 581 -115 l38 0 0 409 0 409 -56 7 c-150 18 -330 95 -449 190
-174 139 -291 333 -355 590 -28 112 -50 273 -50 370 l0 55 -549 0 c-303 0
-552 -4 -555 -8z"/>
<path d="M6317 2093 c-4 -3 -7 -43 -7 -87 0 -249 -94 -558 -224 -740 -139
-194 -353 -327 -591 -367 l-75 -13 0 -408 0 -408 38 0 c124 1 390 53 567 111
583 193 1040 620 1259 1178 74 188 136 499 136 684 l0 57 -548 0 c-302 0 -552
-3 -555 -7z"/>
<path d="M7823 1973 c36 -734 431 -1340 1082 -1659 327 -161 686 -234 1080
-221 455 16 885 135 1178 327 l77 51 0 445 0 446 -62 -50 c-156 -124 -389
-250 -576 -311 -267 -89 -577 -110 -827 -57 -405 85 -703 375 -806 782 -22 87
-49 293 -49 370 0 2 -248 4 -552 4 l-551 0 6 -127z"/>
<path d="M11850 1973 c0 -239 32 -494 86 -683 197 -693 718 -1116 1489 -1211
128 -15 441 -15 570 0 806 98 1333 548 1509 1287 40 171 56 301 63 527 l6 207
-510 0 -510 0 -7 -147 c-4 -82 -13 -193 -21 -248 -56 -380 -232 -612 -535
-707 -68 -21 -94 -23 -265 -23 -171 0 -197 2 -265 23 -127 40 -207 88 -295
176 -166 168 -241 386 -254 741 l-6 180 -527 3 -528 2 0 -127z"/>
<path d="M16570 2068 c60 -52 211 -148 305 -193 121 -58 285 -114 501 -170
428 -111 600 -193 667 -320 19 -34 22 -56 22 -150 0 -95 -3 -116 -24 -157 -52
-107 -172 -184 -337 -217 l-88 -18 -27 -64 c-15 -35 -34 -68 -42 -73 -10 -6
-88 23 -259 97 -135 59 -250 107 -255 107 -6 0 -16 -46 -23 -102 -14 -123 -22
-160 -36 -165 -6 -2 -154 153 -330 344 -175 192 -323 350 -329 353 -8 3 -207
-620 -230 -721 -5 -24 3 -33 82 -91 306 -227 689 -374 1085 -417 125 -14 411
-14 536 0 394 43 717 181 932 400 142 144 231 313 283 533 29 127 31 458 3
586 -34 157 -92 294 -173 408 l-44 62 -1127 0 -1127 -1 35 -31z"/>
</g>
</svg>
