<!--?xml version="1.0" encoding="utf-8"?-->
<!-- Generator: Adobe Illustrator 18.1.1, SVG Export Plug-In . SVG Version: 6.00 Build 0)  -->

<svg version="1.1" id="_x32_" xmlns="http://www.w3.org/2000/svg" xmlns:xlink="http://www.w3.org/1999/xlink" x="0px" y="0px" viewBox="0 0 512 512" style="width: 256px; height: 256px; opacity: 1;" xml:space="preserve">
<style type="text/css">
	.st0{fill:#4B4B4B;}
</style>
<g>
	<path class="st0" d="M381.524,39.771c-4.887,0-9.611,0.751-14.052,2.147c-5.756-19.534-23.863-33.831-45.246-33.831
		c-9.061,0-17.528,2.57-24.717,7.011C288.9,5.815,276.601,0,262.973,0c-24.242,0-44.28,18.381-46.872,41.94
		c-3.966-1.084-8.126-1.663-12.418-1.663c-25.995,0-47.14,21.13-47.14,47.11c-0.014,12.448-0.052,48.707-0.074,83.54
		c-8.942-5.252-19.2-8.237-29.627-8.237h-0.008c-15.055,0-28.186,6.498-36.022,17.84c-6.245,9.031-11.771,24.821-2.777,48.899
		c32.865,93.827,57.931,140.328,74.53,171.113c14.602,27.094,20.068,37.232,20.068,57.463v8.236
		c0,25.23,20.528,45.758,45.758,45.758h110.79c25.23,0,45.758-20.528,45.758-45.758v-6.691c0-8.393,5.184-19.326,11.75-33.162
		c13.502-28.453,31.996-67.423,31.996-133.77V86.941C428.685,60.932,407.526,39.771,381.524,39.771z M403.953,292.619
		c0,98.001-43.746,130.168-43.746,166.932v6.691c0,11.609-9.418,21.034-21.026,21.034h-110.79c-11.609,0-21.034-9.426-21.034-21.034
		v-8.236c0-54.767-33.63-58.622-96.076-237.006c-8.846-23.424,1.871-33.585,15.552-33.585c11.356,0,24.755,7.011,30.704,19.244
		c13.562,32.003,18.463,49.486,21.078,49.486c1.099,0,1.79-3.097,2.555-9.514c-0.06-3.453,0.096-159.244,0.096-159.244
		c0-12.351,10.019-22.378,22.415-22.378c12.344,0,22.422,10.027,22.422,22.378v90.499c4.613-0.735,9.351-1.174,14.438-1.174V47.132
		c0-12.329,10.005-22.408,22.43-22.408c12.344,0,22.392,10.079,22.392,22.408v135.047c4.791,0.936,9.611,1.931,14.438,3V55.22
		c0-12.388,10.042-22.4,22.423-22.4c12.344,0,22.43,10.012,22.43,22.4V194.5c5.095,1.047,9.923,2.094,14.461,3.193V86.941
		c0-12.388,10.026-22.437,22.408-22.437c12.359,0,22.43,10.049,22.43,22.437V292.619z" style="fill: rgb(75, 75, 75);"></path>
</g>
</svg>
