<svg id="Layer_1" data-name="Layer 1" xmlns="http://www.w3.org/2000/svg" viewBox="0 0 512 512"><title>right-hand-high-five-outline</title><path d="M145.56,400,85.79,322.57,15.63,258.06l6.5-5Q49.08,231,67.92,231a63.29,63.29,0,0,1,35.73,10.78q16.24,10.76,29.56,32.32,18.51,6.29,28.91,12,2.27-22.33,5.52-33L127.37,101.74q-5.19-20.39-5.2-35.46,0-14.75,7.48-22t22.41-7.22q26,0,43.85,51.54l40.6,116.93L232.94,55.32Q232.94,0,269,0q18.2,0,27.28,12.26T305.37,49V199.27l39-131.69q12-40.23,39.31-40.24,15.92,0,23.87,8.65t8,26.25q0,9.11-6.51,33L374.12,223.47l56.25-89.57Q448.57,105,466.78,105a28.55,28.55,0,0,1,21,8.63,28.84,28.84,0,0,1,8.61,21.18q0,14.13-14,37.66L420.33,276.63l3.56,37.76q-9.8,70.5-34.62,115.18l-28,31.47v34.61A176.13,176.13,0,0,1,287.18,512q-37,0-78.29-16.35v-45Q181,432.08,145.56,400Zm79.26,85.28q33,10.7,59.28,10.7a170,170,0,0,0,60.25-10.7V457.89l29.78-34.61q23.36-44.06,33.4-108.89l-4-42.48L468.44,164.3q12-20.08,12-29.18,0-7.22-3.24-10.66T467.49,121q-9.72,0-23,21.32L374.12,253l-23.6-10.92L393.76,89.21q5.81-20.1,5.81-26.68,0-10-4.21-14.91t-12.63-4.87q-17.16,0-27.85,38.66L314.39,225.67l-25.58-4.4V63.88l.33-19.83q0-14.49-5.2-21.57T268.66,15.4q-20.46,0-20.46,41.24l.33,10.07,3.89,154.56H224.49L177.39,86.12q-11.37-32.37-25-32.37-7.14,0-10.72,4.55t-3.57,14q0,10.35,6.5,32.95L185.51,253a264.6,264.6,0,0,0-8.45,40.91q33.85,17.62,53.38,45.94l-12.36,9.44a200.55,200.55,0,0,0-96.23-62.94q-11-20.15-24.36-30.05a47.43,47.43,0,0,0-28.91-9.92q-14,0-29.56,12.59l60.1,54.44,54.71,70.81q27,25.81,71,58.85Z" fill="#737277"/></svg>