<!--?xml version="1.0" encoding="utf-8"?-->
<!-- Generator: Adobe Illustrator 15.1.0, SVG Export Plug-In . SVG Version: 6.00 Build 0)  -->

<svg version="1.1" id="_x32_" xmlns="http://www.w3.org/2000/svg" xmlns:xlink="http://www.w3.org/1999/xlink" x="0px" y="0px" width="512px" height="512px" viewBox="0 0 512 512" style="width: 256px; height: 256px; opacity: 1;" xml:space="preserve">
<style type="text/css">

	.st0{fill:#4B4B4B;}

</style>
<g>
	<rect x="142.516" y="456.563" class="st0" width="226.984" height="24.5" style="fill: rgb(75, 75, 75);"></rect>
	<path class="st0" d="M498.656,30.938H13.359C6,30.938,0,36.969,0,44.313V360.25c0,7.359,6,13.375,13.359,13.375h485.297
		c7.344,0,13.344-6.016,13.344-13.375V44.313C512,36.969,506,30.938,498.656,30.938z M256,42.5c2.766,0,5.016,2.25,5.016,5
		c0,2.781-2.25,5-5.016,5s-5-2.219-5-5C251,44.75,253.234,42.5,256,42.5z M480.188,334.938H31.828V69.641h448.359V334.938z" style="fill: rgb(75, 75, 75);"></path>
	<polygon class="st0" points="329.438,385.563 182.563,385.563 182.563,428.969 142.516,445.656 369.5,445.656 329.438,428.969 	" style="fill: rgb(75, 75, 75);"></polygon>
</g>
</svg>
