<!--?xml version="1.0" encoding="utf-8"?-->
<!-- Generator: Adobe Illustrator 18.1.1, SVG Export Plug-In . SVG Version: 6.00 Build 0)  -->

<svg version="1.1" id="_x32_" xmlns="http://www.w3.org/2000/svg" xmlns:xlink="http://www.w3.org/1999/xlink" x="0px" y="0px" viewBox="0 0 512 512" style="width: 256px; height: 256px; opacity: 1;" xml:space="preserve">
<style type="text/css">
	.st0{fill:#4B4B4B;}
</style>
<g>
	<path class="st0" d="M255.996,277.338c37.825,0,68.492-30.659,68.492-68.484c0-37.824-30.667-68.484-68.492-68.484
		c-37.817,0-68.476,30.659-68.476,68.484C187.52,246.678,218.178,277.338,255.996,277.338z" style="fill: rgb(75, 75, 75);"></path>
	<path class="st0" d="M343.026,477.183c-21.023,0-49.487-22.19-56.428-44.195c-10.013,1.359-20.219,2.132-30.602,2.132
		c-10.375,0-20.581-0.772-30.602-2.132c-6.933,22.005-35.404,44.195-56.428,44.195c-25.246,0-24.385,34.817-2.042,34.817
		c8.71,0,89.073,0,89.073,0s80.371,0,89.074,0C367.42,512,368.28,477.183,343.026,477.183z" style="fill: rgb(75, 75, 75);"></path>
	<path class="st0" d="M255.996,0C140.654,0,47.142,93.505,47.142,208.853c0,115.349,93.512,208.862,208.853,208.862
		c115.358,0,208.862-93.513,208.862-208.862C464.858,93.505,371.353,0,255.996,0z M255.996,110.233
		c54.474,0,98.628,44.147,98.628,98.62c0,54.474-44.154,98.628-98.628,98.628c-54.466,0-98.62-44.154-98.62-98.628
		C157.376,154.38,201.53,110.233,255.996,110.233z M342.166,106.912c-9.144,0-16.56-7.407-16.56-16.56
		c0-9.145,7.415-16.552,16.56-16.552c9.145,0,16.552,7.407,16.552,16.552C358.718,99.504,351.31,106.912,342.166,106.912z" style="fill: rgb(75, 75, 75);"></path>
</g>
</svg>
